<svg width="1760" height="1760" xmlns="http://www.w3.org/2000/svg" xmlns:xlink="http://www.w3.org/1999/xlink" xml:space="preserve" overflow="hidden"><defs><clipPath id="clip0"><rect x="1275" y="321" width="1760" height="1760"/></clipPath><linearGradient x1="2156" y1="354" x2="2156" y2="2044" gradientUnits="userSpaceOnUse" spreadMethod="reflect" id="fill1"><stop offset="0" stop-color="#339166"/><stop offset="0.0344828" stop-color="#339267"/><stop offset="0.0689655" stop-color="#349468"/><stop offset="0.103448" stop-color="#35966A"/><stop offset="0.137931" stop-color="#35986B"/><stop offset="0.172414" stop-color="#36996C"/><stop offset="0.206897" stop-color="#369B6D"/><stop offset="0.241379" stop-color="#379D6E"/><stop offset="0.275862" stop-color="#379E6F"/><stop offset="0.310345" stop-color="#38A071"/><stop offset="0.344828" stop-color="#39A172"/><stop offset="0.37931" stop-color="#39A273"/><stop offset="0.413793" stop-color="#39A373"/><stop offset="0.448276" stop-color="#3AA574"/><stop offset="0.482759" stop-color="#3AA675"/><stop offset="0.517241" stop-color="#3BA776"/><stop offset="0.551724" stop-color="#3BA877"/><stop offset="0.586207" stop-color="#3BA977"/><stop offset="0.62069" stop-color="#3CAA78"/><stop offset="0.655172" stop-color="#3CAA79"/><stop offset="0.689655" stop-color="#3CAB79"/><stop offset="0.724138" stop-color="#3DAC7A"/><stop offset="0.758621" stop-color="#3DAC7A"/><stop offset="0.793103" stop-color="#3DAD7A"/><stop offset="0.827586" stop-color="#3DAD7B"/><stop offset="0.862069" stop-color="#3DAE7B"/><stop offset="0.896552" stop-color="#3DAE7B"/><stop offset="0.931035" stop-color="#3DAE7B"/><stop offset="0.965517" stop-color="#3DAE7B"/><stop offset="1" stop-color="#3EAF7C"/></linearGradient><clipPath id="clip2"><rect x="1516" y="554" width="1368" height="1367"/></clipPath><clipPath id="clip3"><rect x="1516" y="554" width="1368" height="1367"/></clipPath><clipPath id="clip4"><rect x="1516" y="554" width="1368" height="1367"/></clipPath><clipPath id="clip5"><rect x="1980" y="729" width="460" height="461"/></clipPath><clipPath id="clip6"><rect x="1980" y="729" width="460" height="461"/></clipPath><clipPath id="clip7"><rect x="1980" y="729" width="460" height="461"/></clipPath><clipPath id="clip8"><path d="M1923.77 1499.53 2407.13 1110.61 2796.05 1593.97 2312.7 1982.89Z" fill-rule="evenodd" clip-rule="evenodd"/></clipPath><clipPath id="clip9"><path d="M1923.77 1499.53 2407.13 1110.61 2796.05 1593.97 2312.7 1982.89Z" fill-rule="evenodd" clip-rule="evenodd"/></clipPath><clipPath id="clip10"><path d="M1923.77 1499.53 2407.13 1110.61 2796.05 1593.97 2312.7 1982.89Z" fill-rule="evenodd" clip-rule="evenodd"/></clipPath><clipPath id="clip11"><rect x="1464" y="1546" width="460" height="461"/></clipPath><clipPath id="clip12"><rect x="1464" y="1546" width="460" height="461"/></clipPath><clipPath id="clip13"><rect x="1464" y="1546" width="460" height="461"/></clipPath></defs><g clip-path="url(#clip0)" transform="translate(-1275 -321)"><path d="M1275 614.339C1275 452.332 1406.33 321 1568.34 321L2741.66 321C2903.67 321 3035 452.332 3035 614.339L3035 1787.66C3035 1949.67 2903.67 2081 2741.66 2081L1568.34 2081C1406.33 2081 1275 1949.67 1275 1787.66Z" fill="#000000" fill-rule="evenodd" fill-opacity="0.101961"/><path d="M1298 1768 3014 1768C3014 1929.82 2885.95 2061 2727.99 2061L1584.01 2061C1426.05 2061 1298 1929.82 1298 1768Z" fill="#2B7956" fill-rule="evenodd"/><path d="M1298 634C1298 472.18 1426.05 341 1584.01 341L2727.99 341C2885.95 341 3014 472.18 3014 634L1298 634Z" fill="#3EAF7C" fill-rule="evenodd"/><path d="M1298 660.308C1298 510.187 1421.42 354 1567.73 354L2729.86 354C2876.18 354 3014 510.187 3014 660.308L3014 1747.55C3014 1897.67 2876.18 2044 2729.86 2044L1568.94 2043.19C1422.63 2043.19 1298 1897.67 1298 1747.55L1298 660.308Z" fill="url(#fill1)" fill-rule="evenodd"/><path d="M1298 648C1298 485.628 1426.05 354 1584.01 354L2727.99 354C2885.95 354 3014 485.628 3014 648L1298 648Z" fill="#339166" fill-rule="evenodd" fill-opacity="0.501961"/><rect x="1298" y="648" width="1716" height="643" fill="#339166" fill-opacity="0.501961"/><g clip-path="url(#clip2)"><g clip-path="url(#clip3)"><g clip-path="url(#clip4)"><path d="M683 706.478C621.245 588.234 542.131 545.831 469.562 547.965L469.562 399.84C469.562 281.961 565.121 186.402 683 186.402 800.879 186.402 896.438 281.961 896.438 399.84L896.438 456.756 981.812 456.756 981.812 399.84C981.812 234.81 848.03 101.027 683 101.027 517.97 101.027 384.188 234.81 384.188 399.84L384.188 571.586C316.03 608.297 266.797 682.146 266.797 753.719 266.797 1001.88 683 1264.97 683 1264.97 683 1264.97 1099.2 1001.88 1099.2 754.146 1099.2 588.376 837.244 411.081 683 706.478ZM711.458 964.026 711.458 1040.15 654.542 1040.15 654.542 964.026C610.087 948.309 586.791 899.53 602.507 855.075 618.225 810.621 667.004 787.324 711.458 803.042 755.913 818.759 779.209 867.538 763.493 911.991 754.896 936.305 735.772 955.43 711.458 964.026Z" fill="#FFFFFF" transform="matrix(1 0 0 1.00073 1517 554)"/></g></g></g><g clip-path="url(#clip5)"><g clip-path="url(#clip6)"><g clip-path="url(#clip7)"><path d="M2291.46 1113.87C2288.95 1113.87 2286.54 1112.89 2284.75 1111.14 2265.68 1092.99 2249.05 1072.46 2235.25 1050.04 2221.46 1026.65 2214.38 999.906 2214.79 972.752 2215.12 967.47 2219.68 963.457 2224.96 963.789 2224.97 963.79 2224.98 963.791 2225 963.792 2230.28 964.124 2234.29 968.675 2233.96 973.958 2233.96 973.971 2233.96 973.985 2233.96 973.998 2233.87 997.351 2240.04 1020.3 2251.83 1040.46 2264.71 1061.36 2280.23 1080.51 2298.02 1097.43 2301.81 1101.13 2301.88 1107.2 2298.18 1110.98 2296.41 1112.79 2293.99 1113.83 2291.46 1113.87Z" fill="#92D050"/><path d="M2266.78 1136.82C2264.25 1136.82 2261.82 1135.82 2260.02 1134.04 2239.32 1114.05 2221.23 1091.51 2206.21 1066.96 2189.03 1037.77 2180.39 1004.35 2181.25 970.5 2182.78 946.732 2203.29 928.706 2227.06 930.237 2227.12 930.241 2227.19 930.246 2227.25 930.25 2250.93 931.79 2268.92 952.176 2267.5 975.867 2267.83 992.719 2272.45 1009.21 2280.92 1023.78 2291.21 1040.48 2303.48 1055.86 2317.48 1069.59 2321.21 1073.35 2321.19 1079.42 2317.43 1083.15 2313.67 1086.88 2307.6 1086.86 2303.87 1083.1 2288.66 1068.25 2275.38 1051.54 2264.34 1033.37 2253.95 1015.65 2248.42 995.497 2248.33 974.956 2249.22 961.754 2239.24 950.331 2226.04 949.442 2219.7 949.015 2213.44 951.126 2208.66 955.31 2203.82 959.486 2200.86 965.42 2200.42 971.794 2199.73 1001.81 2207.47 1031.43 2222.75 1057.28 2236.93 1080.37 2253.98 1101.57 2273.49 1120.38 2277.23 1124.12 2277.24 1130.19 2273.5 1133.94 2273.49 1133.94 2273.49 1133.94 2273.49 1133.94 2271.72 1135.75 2269.31 1136.78 2266.78 1136.82Z" fill="#92D050"/><path d="M2173.68 1156.75C2172.58 1156.75 2171.5 1156.55 2170.47 1156.18 2165.48 1154.4 2162.89 1148.92 2164.66 1143.93 2164.67 1143.92 2164.67 1143.92 2164.67 1143.91 2171.91 1123.88 2186.76 1111.42 2203.44 1111.42 2220.11 1111.42 2234.34 1123.45 2241.77 1142.81 2243.65 1147.76 2241.16 1153.29 2236.21 1155.17 2236.21 1155.17 2236.21 1155.17 2236.21 1155.17 2231.26 1157.05 2225.73 1154.56 2223.85 1149.61 2223.85 1149.61 2223.85 1149.61 2223.85 1149.61 2219.39 1137.87 2211.58 1130.45 2203.48 1130.45 2195.39 1130.45 2187.05 1138.4 2182.74 1150.67 2181.28 1154.38 2177.67 1156.81 2173.68 1156.75Z" fill="#92D050"/><path d="M2140.09 1138.64C2137.53 1138.59 2135.1 1137.52 2133.33 1135.67 2129.54 1131.98 2129.45 1125.91 2133.13 1122.12 2133.2 1122.05 2133.27 1121.98 2133.33 1121.92 2147.71 1108.36 2169.61 1079.89 2156.81 1041.51 2149.06 1018.19 2145.96 993.576 2147.71 969.063L2147.71 968.248C2150.44 925.994 2186.91 893.955 2229.16 896.685 2229.27 896.693 2229.39 896.701 2229.5 896.708 2271.2 899.605 2302.96 935.26 2301.04 977.017 2300.79 982.31 2296.3 986.396 2291 986.145 2285.71 985.893 2281.62 981.399 2281.88 976.106 2283.69 944.35 2259.41 917.137 2227.66 915.324 2195.9 913.511 2168.69 937.785 2166.88 969.542L2166.88 970.404C2165.33 992.491 2168.15 1014.67 2175.16 1035.67 2191.31 1084.16 2164.29 1119.38 2146.7 1136.05 2144.91 1137.73 2142.54 1138.66 2140.09 1138.64ZM2326.96 1054.55C2324.39 1054.47 2321.96 1053.37 2320.21 1051.48 2310.01 1040.82 2300.98 1029.09 2293.28 1016.5 2290.44 1012.03 2291.76 1006.11 2296.23 1003.27 2300.69 1000.43 2306.61 1001.75 2309.45 1006.22 2309.6 1006.44 2309.73 1006.68 2309.86 1006.92 2316.79 1018.31 2324.93 1028.91 2334.15 1038.54 2337.75 1042.42 2337.52 1048.49 2333.64 1052.08 2333.64 1052.09 2333.63 1052.1 2333.62 1052.1 2331.84 1053.7 2329.51 1054.58 2327.11 1054.55Z" fill="#92D050"/><path d="M2105.73 1107.25C2102.99 1107.26 2100.37 1106.09 2098.55 1104.04 2095.02 1100.09 2095.37 1094.03 2099.33 1090.51 2099.34 1090.5 2099.35 1090.49 2099.36 1090.48 2111.2 1079.99 2124.47 1062.21 2120.73 1036.96 2120.2 1033.51 2119.63 1030.01 2119.1 1026.56 2115.22 1006.85 2113.61 986.75 2114.31 966.667L2114.31 965.996C2118.38 905.265 2170.91 859.331 2231.64 863.398 2231.68 863.401 2231.71 863.404 2231.75 863.406 2287.77 867.144 2333.77 913.192 2334.58 965.996 2334.93 975.608 2339.27 984.64 2346.56 990.913 2350.36 994.571 2350.49 1000.61 2346.85 1004.43 2343.2 1008.26 2337.14 1008.42 2333.3 1004.77 2333.3 1004.77 2333.29 1004.76 2333.29 1004.76 2322.35 994.958 2315.89 981.109 2315.42 966.427 2314.94 923.302 2277.08 885.879 2230.7 882.765 2180.55 879.152 2136.96 916.878 2133.35 967.029 2133.35 967.116 2133.34 967.203 2133.33 967.29L2133.33 967.961C2132.8 986.626 2134.41 1005.29 2138.12 1023.59 2138.7 1027.09 2139.23 1030.59 2139.75 1034.13 2145.07 1069.64 2124.76 1093.65 2112.15 1104.81 2110.39 1106.39 2108.1 1107.26 2105.73 1107.25Z" fill="#92D050"/><path d="M2333.86 903.465C2330.82 903.469 2327.96 902.028 2326.15 899.583 2303.97 869.799 2269.78 851.319 2232.71 849.079 2201.12 846.905 2169.89 856.881 2145.41 876.967 2141.59 880.628 2135.52 880.497 2131.86 876.675 2128.2 872.853 2128.33 866.786 2132.15 863.125 2132.52 862.773 2132.91 862.45 2133.33 862.161 2161.53 838.961 2197.53 827.439 2233.96 829.961 2276.65 832.584 2316.02 853.881 2341.58 888.179 2344.63 892.471 2343.64 898.419 2339.38 901.5 2337.79 902.713 2335.86 903.4 2333.86 903.465Z" fill="#92D050"/><path d="M2069.12 919.325C2067.89 919.319 2066.67 919.075 2065.53 918.606 2060.72 916.615 2058.38 911.147 2060.26 906.292 2089.23 835.687 2160.06 791.476 2236.21 796.467 2256.28 797.851 2275.97 802.58 2294.48 810.458 2299.43 812.334 2301.92 817.866 2300.04 822.816 2298.17 827.765 2292.63 830.257 2287.69 828.382 2287.45 828.294 2287.23 828.197 2287 828.092 2270.46 821.127 2252.87 816.965 2234.96 815.777 2167.05 811.18 2103.82 850.555 2077.99 913.527 2076.47 917.065 2072.98 919.35 2069.12 919.325Z" fill="#92D050"/><path d="M2119.58 811.081C2114.29 811.115 2109.97 806.852 2109.94 801.56 2109.92 798.188 2111.67 795.053 2114.55 793.304 2147.08 773.44 2184.4 762.806 2222.51 762.542 2227.73 762.542 2233.14 762.542 2238.46 763.021 2243.76 763.378 2247.76 767.958 2247.4 773.251 2247.04 778.544 2242.46 782.545 2237.17 782.188 2232.38 781.852 2227.59 781.708 2222.79 781.756 2188.17 781.986 2154.26 791.644 2124.71 809.692 2123.18 810.663 2121.39 811.147 2119.58 811.081Z" fill="#92D050"/><path d="M2074.92 1074.62C2069.63 1074.62 2065.34 1070.33 2065.34 1065.04 2065.34 1061.88 2066.9 1058.92 2069.51 1057.13 2080.05 1049.85 2086.81 1043.67 2084.75 1024.02 2084.36 1020.38 2083.88 1016.69 2083.45 1012.95 2081 996.866 2080.15 980.575 2080.91 964.319L2080.91 963.792C2082.71 935.782 2092.71 908.919 2109.66 886.55 2112.55 882.117 2118.49 880.867 2122.92 883.759 2127.36 886.65 2128.61 892.588 2125.72 897.021 2125.47 897.399 2125.2 897.759 2124.9 898.098 2110.2 917.533 2101.56 940.864 2100.03 965.181L2100.03 965.661C2099.4 980.75 2100.22 995.865 2102.48 1010.8 2102.95 1014.58 2103.39 1018.37 2103.77 1022.11 2106.98 1052.05 2093.37 1064.08 2080.34 1072.99 2078.74 1074.07 2076.85 1074.64 2074.92 1074.62Z" fill="#92D050"/></g></g></g><g clip-path="url(#clip8)"><g clip-path="url(#clip9)"><g clip-path="url(#clip10)"><path d="M2209.34 1524.55 2187.43 1497.32C2154.43 1489.52 2134.01 1456.44 2141.81 1423.45 2149.62 1390.45 2182.7 1370.03 2215.69 1377.83 2242.83 1384.25 2262.23 1408.16 2262.93 1436.04L2284.98 1463.44C2299.22 1417.41 2273.46 1368.55 2227.42 1354.31 2181.39 1340.06 2132.53 1365.83 2118.29 1411.86 2104.05 1457.89 2129.82 1506.75 2175.85 1521 2186.67 1524.35 2198.05 1525.55 2209.34 1524.55Z" fill="#FFC000"/><path d="M2179.1 1456.04 2352.05 1670.99 2351.99 1671.04 2265.57 1601.93C2252.83 1592 2234.46 1594.28 2224.53 1607.01 2214.78 1619.52 2216.78 1637.53 2229.04 1647.59L2355.33 1748.57C2360.68 1752.84 2367.36 1755.1 2374.21 1754.95L2455.71 1753.15 2483.36 1787.51 2615.45 1681.23 2597.12 1658.45C2571.16 1626.18 2605.61 1594.39 2556.59 1533.46L2490.61 1451.46C2478.49 1436.37 2456.44 1433.96 2441.35 1446.08 2434.53 1451.55 2430.01 1459.37 2428.67 1468.01 2428.06 1467.1 2427.43 1466.21 2426.73 1465.35 2414.6 1450.25 2392.53 1447.85 2377.44 1459.98 2370.37 1465.66 2365.78 1473.86 2364.63 1482.85 2349.46 1470.8 2327.41 1473.33 2315.36 1488.49 2305.15 1501.34 2305.22 1519.55 2315.52 1532.32L2224.65 1419.39C2214.53 1406.81 2196.13 1404.82 2183.55 1414.94 2170.97 1425.06 2168.97 1443.46 2179.1 1456.04Z" fill="#FFC000"/></g></g></g><g clip-path="url(#clip11)"><g clip-path="url(#clip12)"><g clip-path="url(#clip13)"><path d="M343.302 1235.39C340.448 1233.94 336.829 1231.05 335.26 1228.97 333.691 1226.9 331.798 1222.91 331.054 1220.12 330.309 1217.32 330.062 1213.51 330.506 1211.66 330.949 1209.8 333.629 1202.82 336.46 1196.14 339.292 1189.45 344.081 1176.3 347.104 1166.91 350.128 1157.53 353.975 1143.34 355.654 1135.38 357.333 1127.43 359.594 1113.95 360.678 1105.42 361.918 1095.67 362.649 1080.96 362.649 1065.76 362.649 1050.73 361.917 1035.85 360.711 1026.38 359.647 1018 357.681 1005.77 356.344 999.199 355.007 992.625 352.237 981.269 350.191 973.961 348.143 966.653 342.862 951.706 338.453 940.744 332.517 925.98 330.452 919.376 330.49 915.268 330.522 911.68 331.511 908.156 333.289 905.278 334.801 902.832 337.927 899.389 340.238 897.627 343.205 895.363 346.345 894.265 350.938 893.885 354.514 893.588 358.837 893.696 360.545 894.125 362.253 894.554 365.76 896.812 368.339 899.14 371.739 902.212 374.557 906.87 378.594 916.086 381.655 923.077 386.295 934.985 388.902 942.547 391.51 950.111 395.528 963.806 397.831 972.982 400.133 982.157 403.141 996.458 404.516 1004.76 405.889 1013.07 407.564 1026.38 408.238 1034.36 408.914 1042.33 409.464 1056.46 409.464 1065.76 409.464 1075.06 408.914 1089.19 408.238 1097.17 407.564 1105.14 405.894 1118.46 404.525 1126.76 403.158 1135.06 399.964 1150.01 397.429 1159.98 394.894 1169.94 390.263 1185.16 387.138 1193.8 384.013 1202.43 379.203 1214.1 376.449 1219.73 373.062 1226.67 369.97 1231.14 366.893 1233.55 363.323 1236.37 360.855 1237.22 355.418 1237.57 350.061 1237.92 347.315 1237.43 343.302 1235.39ZM267.435 1202.82C265.373 1202.19 261.204 1199.02 258.172 1195.78 253.814 1191.12 252.477 1188.67 251.791 1184.1 251.044 1179.12 251.472 1177.02 254.836 1169.14 256.988 1164.1 261.114 1153.15 264.006 1144.82 266.897 1136.48 270.63 1122.89 272.302 1114.62 273.972 1106.35 275.95 1091.79 276.695 1082.27 277.699 1069.45 277.696 1060.67 276.688 1048.45 275.939 1039.37 273.982 1025.27 272.339 1017.12 270.697 1008.97 267.662 997.031 265.597 990.582 263.531 984.134 259.777 974.099 257.254 968.283 254.731 962.466 252.294 956.009 251.839 953.934 251.382 951.858 251.681 947.766 252.503 944.828 253.418 941.564 255.836 937.655 258.738 934.753 261.345 932.146 265.413 929.374 267.777 928.594 270.142 927.813 274.52 927.45 277.505 927.787 280.755 928.153 284.939 929.803 287.931 931.897 291.416 934.337 294.116 937.786 296.857 943.297 299.018 947.643 302.98 957.02 305.662 964.136 308.343 971.253 312.371 984.256 314.613 993.033 316.855 1001.81 319.677 1015.24 320.882 1022.88 322.572 1033.59 324.791 1040.52 324.762 1063.35 324.731 1088.58 322.59 1098.35 320.225 1112.19 318.7 1121.12 315.651 1134.98 313.449 1142.99 311.247 1151 307.221 1163.27 304.501 1170.24 301.782 1177.22 298.054 1185.9 296.219 1189.53 294.094 1193.74 291.059 1197.41 287.857 1199.66 284.368 1202.11 281.051 1203.31 277.008 1203.58 273.806 1203.8 269.498 1203.46 267.435 1202.82ZM185.425 1159.49C183.432 1158.99 180.606 1157.94 179.144 1157.16 177.684 1156.37 164.367 1146.37 149.551 1134.94 134.736 1123.51 111.744 1105.76 98.4568 1095.5 85.1699 1085.24 69.8671 1073.94 64.4504 1070.39 59.0338 1066.85 53.7342 1063.95 52.6734 1063.95 51.0837 1063.95 50.7466 1065.49 50.7544 1072.71 50.7593 1077.52 52.1186 1087.97 53.7742 1095.93 55.4297 1103.89 56.7844 1114.18 56.7844 1118.8 56.7844 1124.85 56.0787 1128.66 54.2648 1132.41 52.8791 1135.27 50.136 1138.76 48.1688 1140.16 46.2018 1141.56 42.5375 1142.98 40.026 1143.32 36.835 1143.75 33.9859 1143.18 30.5665 1141.44 27.8752 1140.06 23.4509 1136.41 20.7349 1133.33 18.0188 1130.24 14.7047 1124.8 13.3703 1121.23 12.036 1117.67 9.7241 1109.16 8.23286 1102.33 5.87523 1091.54 4.23057 1086.02 4.25223 1062.91 4.27373 1039.95 5.9415 1035.05 8.29615 1024.09 9.79482 1017.11 12.3806 1008.42 14.0421 1004.77 15.7038 1001.11 18.2549 996.849 19.7113 995.29 21.1678 993.729 23.8271 991.689 25.621 990.757 27.415 989.823 30.4646 989.06 32.3979 989.06 34.3312 989.06 37.9685 990.454 40.4809 992.159 42.9932 993.864 59.5116 1006.53 77.1883 1020.3 94.865 1034.07 122.373 1055.41 138.317 1067.72 154.262 1080.03 169.034 1091.36 171.145 1092.89 173.257 1094.43 175.768 1095.38 176.727 1095.01 177.773 1094.61 178.992 1091.28 179.772 1086.69 180.487 1082.49 181.372 1075.97 181.736 1072.21 182.102 1068.45 181.835 1059.86 181.144 1053.12 180.452 1046.38 178.582 1035.87 176.988 1029.76 175.394 1023.65 172.403 1014.58 170.341 1009.6 168.279 1004.61 166.001 997.004 165.278 992.685 164.294 986.805 164.326 983.518 165.406 979.601 166.199 976.725 168.616 972.442 170.776 970.085 174.064 966.498 175.723 965.7 180.956 965.198 184.623 964.845 188.722 965.223 190.867 966.112 192.879 966.946 197.225 970.581 200.526 974.193 203.826 977.803 208.386 984.678 210.659 989.468 212.933 994.259 216.69 1003.87 219.008 1010.83 221.327 1017.79 224.228 1028.1 225.452 1033.75 227.191 1041.76 228.975 1049.2 228.975 1067.57 228.975 1085.97 227.192 1093.37 225.449 1101.39 224.222 1107.04 221.87 1115.94 220.223 1121.18 218.577 1126.42 215.344 1134.84 213.039 1139.89 210.735 1144.95 207.655 1150.37 206.196 1151.93 204.737 1153.5 202.167 1155.76 200.483 1156.97 198.8 1158.18 195.539 1159.44 193.235 1159.79 190.933 1160.13 187.418 1160 185.425 1159.49Z" fill="#FFFFFF" transform="matrix(1.00218 0 0 1 1486.69 710.803)"/></g></g></g></g></svg>